<?xml version="1.0" encoding="UTF-8" standalone="no"?>
<!DOCTYPE svg PUBLIC "-//W3C//DTD SVG 1.1//EN"
 "http://www.w3.org/Graphics/SVG/1.1/DTD/svg11.dtd">
<!-- Generated by graphviz version 2.43.0 (0)
 -->
<!-- Title: G Pages: 1 -->
<svg width="514pt" height="338pt"
 viewBox="0.00 0.00 514.41 338.43" xmlns="http://www.w3.org/2000/svg" xmlns:xlink="http://www.w3.org/1999/xlink">
<g id="graph0" class="graph" transform="scale(1 1) rotate(0) translate(4 334.43)">
<title>G</title><style>.edge>path:hover{stroke-width:8}</style>
<polygon fill="white" stroke="transparent" points="-4,4 -4,-334.43 510.41,-334.43 510.41,4 -4,4"/>
<!-- bitbot_cli -->
<g id="node1" class="node">
<title>bitbot_cli</title><style>.edge>path:hover{stroke-width:8}</style>
<ellipse fill="#8f3d3d" stroke="black" cx="295.08" cy="-18" rx="34.96" ry="18"/>
<text text-anchor="middle" x="295.08" y="-15.5" font-family="Helvetica,sans-Serif" font-size="10.00" fill="#ffffff">bitbot.cli</text>
</g>
<!-- bitbot_comments -->
<g id="node2" class="node">
<title>bitbot_comments</title><style>.edge>path:hover{stroke-width:8}</style>
<ellipse fill="#b03a3a" stroke="black" cx="48.08" cy="-165.21" rx="48.17" ry="21.43"/>
<text text-anchor="middle" x="48.08" y="-168.21" font-family="Helvetica,sans-Serif" font-size="10.00" fill="#ffffff">bitbot.</text>
<text text-anchor="middle" x="48.08" y="-157.21" font-family="Helvetica,sans-Serif" font-size="10.00" fill="#ffffff">comments</text>
</g>
<!-- bitbot_comments&#45;&gt;bitbot_cli -->
<g id="edge1" class="edge">
<title>bitbot_comments&#45;&gt;bitbot_cli</title><style>.edge>path:hover{stroke-width:8}</style>
<path fill="none" stroke="black" d="M77.73,-148.22C101.69,-134.6 135.67,-113.67 162.08,-91"/>
<path fill="none" stroke="black" d="M162.08,-89C170.68,-81.62 171.62,-78.23 181.08,-72 205.32,-56.03 235.15,-42.35 258.21,-32.89"/>
<polygon fill="#b03a3a" stroke="black" points="259.67,-36.07 267.64,-29.1 257.06,-29.58 259.67,-36.07"/>
</g>
<!-- bitbot_crypto -->
<g id="node3" class="node">
<title>bitbot_crypto</title><style>.edge>path:hover{stroke-width:8}</style>
<ellipse fill="#c04040" stroke="black" cx="275.08" cy="-165.21" rx="46.51" ry="18"/>
<text text-anchor="middle" x="275.08" y="-162.71" font-family="Helvetica,sans-Serif" font-size="10.00" fill="#ffffff">bitbot.crypto</text>
</g>
<!-- bitbot_release -->
<g id="node8" class="node">
<title>bitbot_release</title><style>.edge>path:hover{stroke-width:8}</style>
<ellipse fill="#b03a3a" stroke="black" cx="239.08" cy="-90" rx="49.4" ry="18"/>
<text text-anchor="middle" x="239.08" y="-87.5" font-family="Helvetica,sans-Serif" font-size="10.00" fill="#ffffff">bitbot.release</text>
</g>
<!-- bitbot_crypto&#45;&gt;bitbot_release -->
<g id="edge2" class="edge">
<title>bitbot_crypto&#45;&gt;bitbot_release</title><style>.edge>path:hover{stroke-width:8}</style>
<path fill="none" stroke="black" d="M266.73,-147.23C262.33,-138.27 256.82,-127.08 251.89,-117.04"/>
<polygon fill="#c04040" stroke="black" points="254.94,-115.32 247.39,-107.89 248.66,-118.41 254.94,-115.32"/>
</g>
<!-- bitbot_debug -->
<g id="node4" class="node">
<title>bitbot_debug</title><style>.edge>path:hover{stroke-width:8}</style>
<ellipse fill="#c04040" stroke="black" cx="352.08" cy="-90" rx="45.83" ry="18"/>
<text text-anchor="middle" x="352.08" y="-87.5" font-family="Helvetica,sans-Serif" font-size="10.00" fill="#ffffff">bitbot.debug</text>
</g>
<!-- bitbot_debug&#45;&gt;bitbot_cli -->
<g id="edge3" class="edge">
<title>bitbot_debug&#45;&gt;bitbot_cli</title><style>.edge>path:hover{stroke-width:8}</style>
<path fill="none" stroke="black" d="M338.58,-72.41C331.37,-63.57 322.39,-52.53 314.45,-42.79"/>
<polygon fill="#c04040" stroke="black" points="317.13,-40.53 308.1,-34.99 311.7,-44.95 317.13,-40.53"/>
</g>
<!-- bitbot_history -->
<g id="node5" class="node">
<title>bitbot_history</title><style>.edge>path:hover{stroke-width:8}</style>
<ellipse fill="#a83838" stroke="black" cx="162.08" cy="-165.21" rx="48.04" ry="18"/>
<text text-anchor="middle" x="162.08" y="-162.71" font-family="Helvetica,sans-Serif" font-size="10.00" fill="#ffffff">bitbot.history</text>
</g>
<!-- bitbot_history&#45;&gt;bitbot_cli -->
<g id="edge4" class="edge">
<title>bitbot_history&#45;&gt;bitbot_cli</title><style>.edge>path:hover{stroke-width:8}</style>
<path fill="none" stroke="black" d="M155.76,-147.27C150.61,-130.17 146.46,-104.41 162.08,-91"/>
</g>
<!-- bitbot_logging -->
<g id="node6" class="node">
<title>bitbot_logging</title><style>.edge>path:hover{stroke-width:8}</style>
<ellipse fill="#f91010" stroke="black" cx="257.08" cy="-240.43" rx="49.4" ry="18"/>
<text text-anchor="middle" x="257.08" y="-237.93" font-family="Helvetica,sans-Serif" font-size="10.00" fill="#ffffff">bitbot.logging</text>
</g>
<!-- bitbot_logging&#45;&gt;bitbot_comments -->
<g id="edge5" class="edge">
<title>bitbot_logging&#45;&gt;bitbot_comments</title><style>.edge>path:hover{stroke-width:8}</style>
<path fill="none" stroke="black" d="M222.66,-227.48C191.84,-216.77 145.42,-200.61 105.08,-186.43 101.56,-185.19 97.91,-183.9 94.24,-182.61"/>
<polygon fill="#f91010" stroke="black" points="95.16,-179.22 84.56,-179.18 92.82,-185.82 95.16,-179.22"/>
</g>
<!-- bitbot_logging&#45;&gt;bitbot_crypto -->
<g id="edge6" class="edge">
<title>bitbot_logging&#45;&gt;bitbot_crypto</title><style>.edge>path:hover{stroke-width:8}</style>
<path fill="none" stroke="black" d="M261.26,-222.45C263.4,-213.73 266.06,-202.91 268.48,-193.09"/>
<polygon fill="#f91010" stroke="black" points="271.88,-193.9 270.87,-183.36 265.08,-192.23 271.88,-193.9"/>
</g>
<!-- bitbot_logging&#45;&gt;bitbot_debug -->
<g id="edge7" class="edge">
<title>bitbot_logging&#45;&gt;bitbot_debug</title><style>.edge>path:hover{stroke-width:8}</style>
<path fill="none" stroke="black" d="M352.08,-164.21C358.75,-150.11 359.03,-132.71 357.51,-118.4"/>
<polygon fill="#f91010" stroke="black" points="360.93,-117.59 356.07,-108.18 353.99,-118.57 360.93,-117.59"/>
</g>
<!-- bitbot_logging&#45;&gt;bitbot_history -->
<g id="edge8" class="edge">
<title>bitbot_logging&#45;&gt;bitbot_history</title><style>.edge>path:hover{stroke-width:8}</style>
<path fill="none" stroke="black" d="M236.94,-223.9C223.33,-213.42 205.19,-199.43 190.17,-187.86"/>
<polygon fill="#f91010" stroke="black" points="192.26,-185.05 182.2,-181.72 187.99,-190.59 192.26,-185.05"/>
</g>
<!-- bitbot_reddit -->
<g id="node7" class="node">
<title>bitbot_reddit</title><style>.edge>path:hover{stroke-width:8}</style>
<ellipse fill="#c04040" stroke="black" cx="461.08" cy="-90" rx="45.15" ry="18"/>
<text text-anchor="middle" x="461.08" y="-87.5" font-family="Helvetica,sans-Serif" font-size="10.00" fill="#ffffff">bitbot.reddit</text>
</g>
<!-- bitbot_logging&#45;&gt;bitbot_reddit -->
<g id="edge9" class="edge">
<title>bitbot_logging&#45;&gt;bitbot_reddit</title><style>.edge>path:hover{stroke-width:8}</style>
<path fill="none" stroke="black" d="M352.08,-164.21C365.04,-136.8 393.96,-118.11 418.76,-106.48"/>
<polygon fill="#f91010" stroke="black" points="420.3,-109.62 428.01,-102.36 417.45,-103.23 420.3,-109.62"/>
</g>
<!-- bitbot_logging&#45;&gt;bitbot_release -->
<g id="edge10" class="edge">
<title>bitbot_logging&#45;&gt;bitbot_release</title><style>.edge>path:hover{stroke-width:8}</style>
<path fill="none" stroke="black" d="M286.97,-225.96C309.62,-213.92 339,-193.88 352.08,-166.21"/>
<path fill="none" stroke="black" d="M352.08,-164.21C359.93,-147.63 315.66,-123.85 280.25,-107.94"/>
<polygon fill="#f91010" stroke="black" points="281.57,-104.7 271.01,-103.88 278.75,-111.11 281.57,-104.7"/>
</g>
<!-- bitbot_reddit&#45;&gt;bitbot_cli -->
<g id="edge11" class="edge">
<title>bitbot_reddit&#45;&gt;bitbot_cli</title><style>.edge>path:hover{stroke-width:8}</style>
<path fill="none" stroke="black" d="M431.02,-76.32C402.69,-64.38 360.25,-46.48 330.34,-33.87"/>
<polygon fill="#c04040" stroke="black" points="331.67,-30.63 321.1,-29.97 328.95,-37.08 331.67,-30.63"/>
</g>
<!-- bitbot_release&#45;&gt;bitbot_cli -->
<g id="edge12" class="edge">
<title>bitbot_release&#45;&gt;bitbot_cli</title><style>.edge>path:hover{stroke-width:8}</style>
<path fill="none" stroke="black" d="M252.35,-72.41C259.36,-63.66 268.08,-52.75 275.82,-43.08"/>
<polygon fill="#b03a3a" stroke="black" points="278.78,-44.98 282.29,-34.99 273.31,-40.61 278.78,-44.98"/>
</g>
<!-- bitbot_utils -->
<g id="node9" class="node">
<title>bitbot_utils</title><style>.edge>path:hover{stroke-width:8}</style>
<ellipse fill="#ce3b3b" stroke="black" cx="71.08" cy="-240.43" rx="40.74" ry="18"/>
<text text-anchor="middle" x="71.08" y="-237.93" font-family="Helvetica,sans-Serif" font-size="10.00" fill="#ffffff">bitbot.utils</text>
</g>
<!-- bitbot_utils&#45;&gt;bitbot_comments -->
<g id="edge13" class="edge">
<title>bitbot_utils&#45;&gt;bitbot_comments</title><style>.edge>path:hover{stroke-width:8}</style>
<path fill="none" stroke="black" d="M65.75,-222.45C63.3,-214.65 60.32,-205.17 57.51,-196.23"/>
<polygon fill="#ce3b3b" stroke="black" points="60.79,-194.98 54.45,-186.49 54.11,-197.07 60.79,-194.98"/>
</g>
<!-- bitbot_utils&#45;&gt;bitbot_history -->
<g id="edge14" class="edge">
<title>bitbot_utils&#45;&gt;bitbot_history</title><style>.edge>path:hover{stroke-width:8}</style>
<path fill="none" stroke="black" d="M89.94,-224.26C102.82,-213.89 120.1,-199.99 134.52,-188.39"/>
<polygon fill="#ce3b3b" stroke="black" points="137.03,-190.86 142.62,-181.87 132.64,-185.41 137.03,-190.86"/>
</g>
<!-- requests -->
<g id="node10" class="node">
<title>requests</title><style>.edge>path:hover{stroke-width:8}</style>
<ellipse fill="#40bfc0" stroke="black" cx="162.08" cy="-312.43" rx="34.96" ry="18"/>
<text text-anchor="middle" x="162.08" y="-309.93" font-family="Helvetica,sans-Serif" font-size="10.00" fill="#000000">requests</text>
</g>
<!-- requests&#45;&gt;bitbot_history -->
<g id="edge15" class="edge">
<title>requests&#45;&gt;bitbot_history</title><style>.edge>path:hover{stroke-width:8}</style>
<path fill="none" stroke="black" d="M162.08,-294.2C162.08,-269.31 162.08,-223.04 162.08,-193.48"/>
<polygon fill="#40bfc0" stroke="black" points="165.58,-193.42 162.08,-183.42 158.58,-193.42 165.58,-193.42"/>
</g>
</g>
</svg>
